<svg width="349" height="401" viewBox="0 0 349 401" fill="none" xmlns="http://www.w3.org/2000/svg">
<g filter="url(#filter0_d)">
<ellipse cx="175.107" cy="153.412" rx="146.206" ry="146.412" fill="#4148FF"/>
<ellipse cx="94.4751" cy="116.931" rx="40.3159" ry="40.3728" fill="white"/>
<path d="M262.054 211.54L337.352 353.635H186.756L262.054 211.54Z" fill="#FFB3B3"/>
<path d="M71.7654 226.189C75.3882 213.477 93.4044 213.477 97.0273 226.189V226.189C98.9709 233.009 105.979 237.054 112.857 235.328V235.328C125.676 232.11 134.666 247.73 125.479 257.232V257.232C120.55 262.331 120.55 270.435 125.479 275.534V275.534C134.666 285.036 125.676 300.656 112.857 297.438V297.438C105.979 295.712 98.9709 299.757 97.0273 306.577V306.577C93.4044 319.289 75.3882 319.289 71.7654 306.577V306.577C69.8218 299.757 62.8139 295.712 55.9357 297.438V297.438C43.1168 300.656 34.1271 285.036 43.3133 275.534V275.534C48.2424 270.435 48.2425 262.331 43.3133 257.232V257.232C34.1271 247.73 43.1168 232.11 55.9357 235.328V235.328C62.8139 237.054 69.8218 233.009 71.7654 226.189V226.189Z" fill="#CEFFD0"/>
</g>
<defs>
<filter id="filter0_d" x="-7" y="0" width="363" height="408" filterUnits="userSpaceOnUse" color-interpolation-filters="sRGB">
<feFlood flood-opacity="0" result="BackgroundImageFix"/>
<feColorMatrix in="SourceAlpha" type="matrix" values="0 0 0 0 0 0 0 0 0 0 0 0 0 0 0 0 0 0 127 0"/>
<feOffset/>
<feGaussianBlur stdDeviation="3.5"/>
<feColorMatrix type="matrix" values="0 0 0 0 0 0 0 0 0 0 0 0 0 0 0 0 0 0 0.25 0"/>
<feBlend mode="normal" in2="BackgroundImageFix" result="effect1_dropShadow"/>
<feBlend mode="normal" in="SourceGraphic" in2="effect1_dropShadow" result="shape"/>
</filter>
</defs>
</svg>
