<svg width="194" height="38" viewBox="0 0 194 38" fill="none" xmlns="http://www.w3.org/2000/svg">
<path d="M93.3762 18.5228L93.3905 16.0229L93.3815 16.0228L93.3726 16.0228L93.3762 18.5228ZM192.588 20.8584C193.57 19.8877 193.579 18.3049 192.608 17.323L176.79 1.32227C175.819 0.340389 174.236 0.33133 173.254 1.30204C172.272 2.27274 172.263 3.85563 173.234 4.83751L187.295 19.0604L173.072 33.1213C172.09 34.092 172.081 35.6749 173.052 36.6568C174.023 37.6387 175.606 37.6477 176.587 36.677L192.588 20.8584ZM1.00386 21.1573L93.3799 21.0228L93.3726 16.0228L0.996577 16.1573L1.00386 21.1573ZM93.3619 21.0228L190.816 21.5805L190.845 16.5806L93.3905 16.0229L93.3619 21.0228Z" fill="#F24343"/>
</svg>
