<svg width="5225" height="1895" viewBox="0 0 5225 1895" fill="none" xmlns="http://www.w3.org/2000/svg">
<path d="M348.817 748.648C404.891 760.844 431.988 773.695 473.425 806.17C319.652 741.816 247.674 746.109 137.778 806.17C46.5161 858.722 28.1744 906.787 2.03509 996.244H2.03715C2.03772 1074.5 -7.48209 1031.47 45.5994 1122.79C120.619 1212.52 171.347 1250.18 301.179 1259.84C413.546 1242.46 477.905 1234.9 545.092 1144.8L474.569 1062.77C561.815 1131.91 610.434 1168.25 692.501 1195.32C798.306 1233.17 857.693 1254.35 1065.26 1239.84C1229.89 1205.54 1322.51 1183.97 1508.55 996.244C1492.79 1035.62 1482.44 1057.42 1438.03 1091.78C1560.44 1229.51 1642.53 1271.31 1851.09 1182.31C1823.92 1138.41 1815.5 1112.37 1815.56 1062.77C1881.01 1194.77 1907.05 1284.02 2123.11 1376.89C2223.23 1415.13 2288.95 1425.63 2430.12 1416.91C2351.74 1435.75 2310.69 1441.63 2247.19 1436.41C2240.07 1589.16 2228 1675.92 2383.46 1806.06C2473.14 1869.06 2524.63 1903.01 2678.81 1892.59C2782.83 1888.93 2826.43 1864.41 2894.62 1806.06C2784.24 1718.74 2753.37 1669.79 2709.03 1582.47C2792.7 1684.91 2840.55 1715.48 2929.61 1764.17C3003.25 1806.82 3001.87 1819.93 3144.43 1839.07L3304.93 1856.45L3429.11 1839.07C3485.01 1829.54 3529.66 1809.61 3661.35 1739.53C3772.18 1654.76 3827.82 1597.76 3910.04 1449.92C3889.76 1512.09 3879.47 1546.66 3832.62 1615.98C3890.96 1658.92 3901.92 1692.18 4071.77 1700.01C4182.41 1677.69 4220.53 1658.91 4273.26 1600.48C4195.72 1585.12 4160.58 1569.98 4109.41 1533.95C4200.61 1577.06 4260.16 1589.35 4383.55 1586.97C4541.33 1560.02 4606.76 1529.3 4683.67 1469.93C4794.75 1364.22 4846.47 1298.3 4876.15 1146.8C4820.08 1134.61 4792.98 1121.75 4751.54 1089.28C4905.32 1153.63 4977.29 1149.34 5087.19 1089.28C5178.45 1036.73 5197.36 995.956 5223.5 906.5C5179.36 772.658 5220 899.206 5179.36 772.658C5104.34 682.929 5053.62 645.273 4923.78 635.605C4811.42 652.988 4747.06 660.546 4679.87 750.649L4750.39 832.68C4663.15 763.541 4614.53 727.195 4532.46 700.13C4426.66 662.282 4367.27 641.1 4159.7 655.612C3995.07 689.908 3902.46 711.48 3716.42 899.206C3732.18 859.835 3742.53 838.026 3786.94 803.669C3664.53 665.937 3582.44 624.143 3373.88 713.135C3401.05 757.038 3409.47 783.079 3409.41 832.68C3343.96 700.675 3317.91 611.432 3101.86 518.56C3001.74 480.315 2936.02 469.818 2794.85 478.544C2873.23 459.7 2914.28 453.815 2977.78 459.037C2984.9 306.288 2996.97 219.525 2841.51 89.3937C2751.83 26.3872 2700.34 -7.55744 2546.16 2.86041C2442.14 6.52282 2398.54 31.036 2330.35 89.3937C2440.73 176.707 2471.6 225.663 2515.94 312.98C2432.27 210.536 2384.42 179.971 2295.36 131.284C2221.72 88.6266 2223.1 75.5149 2080.54 56.381L1920.04 39L1795.86 56.381C1739.96 65.9135 1695.3 85.8419 1563.61 155.919C1452.79 240.689 1397.15 297.691 1314.93 445.531C1335.21 383.356 1345.49 348.788 1392.34 279.467C1334.01 236.527 1323.05 203.274 1153.2 195.435C1042.56 217.756 1004.44 236.541 951.707 294.973C1029.25 310.33 1064.38 325.468 1115.55 361.499C1024.36 318.386 964.805 306.098 841.416 308.479C683.639 335.434 618.209 366.147 541.296 425.524C430.22 531.233 378.497 597.154 348.817 748.648Z" fill="#DCDCDC" stroke="#C4C4C4"/>
</svg>
