<svg width="2000" height="2000" viewBox="0 0 2000 2000" fill="none" xmlns="http://www.w3.org/2000/svg">
<circle cx="1000" cy="1000" r="1000" fill="#43C7F2"/>
<path d="M671.053 859.649L684.211 1122.81C593.029 1142.08 565.613 1192.02 535.088 1311.4C463.812 1070.59 492.527 971.138 671.053 859.649Z" fill="white"/>
<path d="M864.035 635.965L710.526 653.509C794.76 426.915 856.994 333.344 995.614 228.07C1141.36 347.847 1199.16 444.309 1271.93 653.509L1122.81 635.965C1062.72 532.718 1033.86 494.091 995.614 478.07C959.462 488.459 924.018 545.361 864.035 635.965Z" fill="white"/>
<path d="M697.368 1368.42V1495.61L793.859 1429.82L750 1649.12L868.421 1565.79L925.438 2000H1061.4L1114.03 1565.79L1236.84 1649.12L1197.37 1429.82L1285.09 1495.61V1368.42C1198.65 1271.71 1136.37 1237.93 991.228 1228.07C835.982 1242.65 777.855 1279.55 697.368 1368.42Z" fill="white"/>
<path d="M1311.4 859.649L1298.25 1122.81C1389.43 1142.08 1416.84 1192.02 1447.37 1311.4C1518.64 1070.59 1489.93 971.138 1311.4 859.649Z" fill="white"/>
<path d="M710.526 671.053C692.495 881.009 695.539 971.761 710.526 1114.04C932.573 1151.32 1055.43 1150.47 1271.93 1114.04C1291.5 975.334 1295.99 886.211 1271.93 671.053C1232.78 661.197 1212.02 655.445 1131.58 653.509L1153.51 710.526C1028.99 699.802 961.054 700.707 842.105 710.526L859.649 653.509C782.048 656.316 758.286 662.014 710.526 671.053Z" fill="white"/>
</svg>
