<svg width="5221" height="996" viewBox="0 0 5221 996" fill="none" xmlns="http://www.w3.org/2000/svg">
<path d="M346.782 747.648C402.856 759.844 429.953 772.695 471.39 805.17C317.617 740.816 245.639 745.109 135.743 805.17C44.4811 857.722 26.1394 905.787 0 995.244L5205.97 993.243C5228.7 910.586 5230.41 862.982 5177.33 771.658C5102.31 681.929 5051.59 644.273 4921.75 634.605C4809.39 651.988 4745.03 659.546 4677.84 749.649L4748.36 831.68C4661.12 762.541 4612.5 726.195 4530.43 699.13C4424.63 661.282 4365.24 640.1 4157.67 654.612C3993.04 688.908 3900.42 710.48 3714.38 898.206C3730.14 858.835 3740.49 837.026 3784.9 802.669C3662.49 664.937 3580.4 623.143 3371.84 712.135C3399.01 756.038 3407.43 782.079 3407.37 831.68C3341.92 699.675 3315.88 610.432 3099.82 517.56C2999.7 479.315 2933.98 468.818 2792.81 477.544C2871.19 458.7 2912.24 452.815 2975.75 458.037C2982.87 305.288 2994.93 218.525 2839.47 88.3937C2749.79 25.3872 2698.3 -8.55744 2544.13 1.86041C2440.1 5.52282 2396.5 30.036 2328.32 88.3937C2438.69 175.707 2469.56 224.663 2513.9 311.98C2430.24 209.536 2382.38 178.971 2293.32 130.284C2219.68 87.6266 2221.06 74.5149 2078.5 55.381L1918 38L1793.83 55.381C1737.93 64.9135 1693.27 84.8419 1561.58 154.919C1450.75 239.689 1395.11 296.691 1312.89 444.531C1333.18 382.356 1343.46 347.788 1390.31 278.467C1331.97 235.527 1321.01 202.274 1151.17 194.435C1040.52 216.756 1002.4 235.541 949.673 293.973C1027.22 309.33 1062.35 324.468 1113.52 360.499C1022.32 317.386 962.771 305.098 839.381 307.479C681.605 334.434 616.174 365.147 539.261 424.524C428.186 530.233 376.462 596.154 346.782 747.648Z" fill="#EAEAEA"/>
</svg>
