<svg width="482" height="757" viewBox="0 0 482 757" fill="none" xmlns="http://www.w3.org/2000/svg">
<path d="M240.952 433C240.952 433 240.952 433 100 433V498.049L145.97 464.403L125.075 576.556L181.493 533.938L208.657 756H273.433L298.507 533.938L357.015 576.556L338.209 464.403L380 498.049V433M240.952 433L380 433M240.952 433L380.801 432.862M240.952 433L100.202 432.862C92.711 365.247 91.1895 322.118 100.202 222.338C124.073 218.042 135.95 215.334 174.736 214L165.967 241.097C225.42 236.43 259.376 236.001 321.612 241.097L310.651 214C350.855 214.92 361.233 217.654 380.801 222.338C392.826 324.59 390.582 366.945 380.801 432.862M380 433L380.801 432.862M99.5 221.5L174.5 213.719C199.5 165.5 224.467 131.194 242.543 126C261.664 134.011 280.957 162.096 311 213.719L381.5 221.5C367.525 103.709 315.603 61.0398 242.931 1.31867L242.543 1C173.234 53.6368 109.5 105.781 99.5 221.5ZM389 305C481 349 499.199 410.472 463.561 530.877C448.299 471.183 426.591 441.638 381 432L385.5 405.5L389 373.5V305ZM95.0901 305C3.09005 349.024 -18.6091 410.53 17.0288 531C32.2912 471.273 99.59 432.069 99.59 432.069C99.59 432.069 96.4999 416.846 95.0901 407C89.4444 367.569 95.0901 305 95.0901 305Z" stroke="black"/>
</svg>
