<svg version="1.0" xmlns="http://www.w3.org/2000/svg"
 width="300.000000pt" height="300.000000pt" viewBox="0 0 300.000000 300.000000"
 preserveAspectRatio="xMidYMid meet">
<path d="M881 2618 c-9 -23 -12 -34 -51 -168 -12 -41 -28 -94 -36 -118 -8 -23
-14 -51 -14 -62 0 -10 -4 -21 -9 -25 -6 -3 -13 -26 -17 -50 -3 -25 -10 -48
-15 -50 -4 -3 -11 -26 -15 -50 -3 -25 -10 -47 -14 -50 -5 -3 -11 -24 -15 -48
-4 -23 -11 -46 -15 -52 -27 -35 -19 -87 29 -200 31 -70 69 -190 63 -195 -37
-29 -67 -77 -78 -127 -7 -32 -21 -85 -29 -118 -9 -33 -23 -87 -31 -120 -9 -33
-22 -87 -31 -120 -8 -33 -20 -83 -27 -112 -6 -28 -15 -55 -19 -59 -27 -27 17
-59 248 -178 33 -17 62 -33 65 -36 3 -3 16 -11 30 -18 14 -6 61 -32 105 -57
44 -25 99 -55 122 -66 23 -11 60 -41 83 -65 41 -44 82 -64 172 -84 24 -5 60
-13 81 -18 23 -6 51 -6 75 0 20 5 56 13 80 18 90 20 131 40 172 84 23 24 60
54 83 65 23 11 71 37 107 57 36 20 83 45 105 57 22 11 42 23 45 27 3 3 30 18
60 33 30 15 91 47 135 72 44 25 90 51 103 57 17 9 22 18 18 32 -2 12 -10 44
-16 71 -6 28 -15 59 -20 70 -5 11 -12 40 -16 65 -3 25 -9 50 -13 55 -3 6 -11
33 -18 60 -6 28 -18 79 -27 115 -9 36 -22 88 -29 117 -8 33 -25 66 -49 93 -40
46 -40 42 8 147 8 17 14 38 14 46 0 9 4 18 9 22 5 3 12 19 16 35 4 17 13 44
22 61 15 30 12 82 -7 118 -5 9 -13 34 -19 56 -11 44 -33 120 -85 295 -9 30
-22 75 -28 100 -6 25 -14 50 -18 55 -4 6 -11 27 -14 49 -4 21 -11 46 -16 55
-4 9 -12 29 -16 45 -5 16 -14 31 -21 33 -11 4 -62 -94 -203 -391 -79 -168
-100 -214 -100 -225 0 -6 -4 -11 -9 -11 -5 0 -12 -13 -16 -29 -7 -31 -9 -32
-142 -61 -27 -6 -56 -15 -65 -20 -23 -13 -113 -13 -136 0 -9 5 -37 14 -62 19
-98 22 -140 35 -140 43 0 14 -65 153 -216 465 -35 72 -64 136 -64 142 0 6 -4
11 -8 11 -4 0 -13 14 -19 30 -13 36 -30 39 -42 8z m39 -447 c5 -30 10 -77 10
-105 l-1 -51 -78 -37 c-44 -21 -84 -38 -90 -38 -6 0 -11 -4 -11 -10 0 -5 -7
-10 -15 -10 -8 0 -15 5 -15 11 0 12 27 99 41 134 5 11 13 38 18 60 5 22 17 65
26 95 9 30 21 73 26 95 6 22 14 47 18 55 5 9 12 31 16 50 4 19 12 44 19 55 8
16 12 -8 18 -115 4 -74 12 -159 18 -189z m45 256 c4 -15 11 -27 16 -27 5 0 9
-5 9 -11 0 -12 18 -51 132 -287 33 -68 57 -126 55 -128 -2 -3 -22 0 -43 5 -22
6 -65 17 -97 25 -33 8 -61 17 -64 20 -3 2 -9 76 -14 163 -6 87 -14 180 -19
206 -6 26 -10 60 -10 75 0 26 0 26 14 6 8 -11 18 -33 21 -47z m1096 -47 c-6
-36 -15 -129 -20 -208 -5 -78 -11 -145 -14 -148 -3 -3 -31 -12 -64 -20 -32 -8
-75 -19 -97 -25 -21 -5 -40 -8 -42 -7 -3 4 4 19 86 193 32 66 74 156 95 200
20 44 42 91 48 104 l12 24 4 -24 c2 -13 -2 -53 -8 -89z m74 43 c4 -24 11 -45
16 -49 5 -3 9 -14 9 -24 0 -11 6 -39 14 -62 8 -24 24 -77 35 -118 12 -41 26
-83 32 -92 5 -10 9 -24 9 -32 0 -7 7 -37 17 -65 9 -28 14 -54 11 -56 -3 -3
-18 1 -34 10 -16 8 -35 15 -41 15 -7 0 -13 5 -13 10 0 6 -5 10 -10 10 -6 0
-33 10 -61 23 l-50 22 5 60 c2 33 10 130 16 215 14 183 18 211 30 190 4 -8 11
-34 15 -57z m-1107 -457 c26 -8 68 -20 95 -27 26 -8 47 -16 47 -19 0 -4 -35
-38 -77 -76 -42 -38 -91 -82 -108 -99 -50 -48 -125 -107 -125 -98 -1 20 106
333 113 333 5 0 29 -6 55 -14z m1052 -123 c24 -76 50 -155 56 -176 l12 -38
-66 58 c-36 32 -78 69 -92 83 -15 14 -56 52 -93 84 -37 33 -67 62 -67 65 0 4
21 12 48 20 26 7 65 18 87 26 70 22 66 26 115 -122z m-1223 -60 c-56 -168 -64
-177 -81 -95 -4 17 -12 34 -17 37 -5 4 -9 14 -9 23 0 9 -6 29 -14 43 -35 67
-33 70 72 121 53 26 98 43 100 39 1 -4 -22 -80 -51 -168z m1350 122 c89 -43
91 -48 57 -114 -8 -14 -14 -31 -14 -37 0 -7 -7 -25 -15 -40 -8 -16 -15 -36
-15 -44 0 -8 -7 -23 -14 -33 -13 -17 -15 -15 -21 22 -4 23 -10 43 -15 46 -5 3
-11 23 -15 45 -4 22 -10 42 -15 45 -4 3 -11 22 -15 42 -4 21 -10 43 -15 48 -4
6 -11 25 -15 42 -8 38 -16 40 112 -22z m-803 -39 c62 -16 96 -36 61 -36 -11 0
-33 -7 -49 -15 -15 -8 -33 -15 -40 -15 -6 0 -22 -6 -36 -13 -14 -7 -54 -24
-90 -37 -36 -12 -69 -27 -75 -32 -5 -4 -16 -8 -25 -8 -8 0 -28 -7 -44 -15 -15
-8 -33 -15 -38 -15 -6 0 -26 -7 -46 -16 -91 -39 -102 -43 -102 -40 0 6 45 51
72 72 15 12 63 53 105 92 144 131 127 121 191 106 32 -7 84 -20 116 -28z m479
-59 c45 -41 98 -88 117 -103 35 -29 80 -74 80 -80 0 -3 -11 1 -102 40 -20 9
-43 16 -51 16 -9 0 -18 4 -22 9 -3 5 -20 13 -37 17 -18 3 -39 10 -48 15 -8 5
-58 25 -110 45 -52 19 -109 42 -127 50 -17 8 -39 14 -49 14 -34 0 4 24 59 37
28 6 79 18 112 26 71 16 63 20 178 -86z m-445 -49 c-46 -73 -88 -147 -88 -156
0 -6 -3 -12 -7 -14 -5 -2 -18 -21 -29 -43 -23 -42 -46 -53 -169 -76 -27 -5
-61 -14 -75 -19 -14 -4 -42 -11 -63 -14 -34 -4 -42 -1 -99 54 l-63 59 30 10
c17 6 37 15 45 20 9 5 30 12 48 15 17 4 34 12 37 17 4 5 14 9 23 9 9 0 30 7
46 15 15 8 33 15 40 15 6 0 22 6 36 13 14 7 54 24 90 37 36 12 69 27 75 32 5
4 15 8 23 8 8 0 28 6 45 14 29 13 55 23 66 25 2 1 -3 -9 -11 -21z m182 -5 c14
-7 32 -13 41 -13 8 0 19 -4 25 -8 5 -5 38 -20 74 -32 36 -13 76 -30 90 -37 14
-7 33 -13 42 -13 9 0 19 -4 23 -9 3 -5 19 -12 36 -16 17 -4 42 -13 57 -21 15
-8 33 -14 40 -14 7 0 20 -4 30 -10 9 -5 30 -15 47 -21 l29 -10 -60 -59 -61
-59 -49 9 c-48 9 -135 28 -224 50 -34 8 -50 19 -67 45 -13 19 -23 39 -23 45 0
5 -4 10 -10 10 -5 0 -10 5 -10 11 0 10 -40 82 -87 156 -13 20 -13 21 9 15 12
-3 34 -11 48 -19z m-107 -80 c3 -16 13 -62 22 -103 21 -98 42 -239 55 -370 6
-58 15 -125 20 -150 5 -25 12 -85 16 -135 4 -49 11 -101 16 -114 11 -30 5 -37
-15 -16 -12 12 -40 15 -131 15 -64 0 -116 -4 -116 -9 0 -5 -7 -11 -15 -14 -11
-5 -12 -1 -6 16 5 12 12 65 15 117 4 52 11 113 16 135 5 22 14 87 20 145 13
130 35 281 56 380 8 41 18 87 21 103 3 15 9 27 13 27 4 0 10 -12 13 -27z m651
-373 l-82 -167 -128 -86 c-71 -47 -133 -82 -137 -77 -5 4 -14 34 -22 66 -7 33
-21 88 -30 124 -29 118 -29 117 -4 130 22 12 35 22 64 48 7 6 18 12 23 12 5 0
15 6 21 14 8 9 39 15 94 17 89 4 90 5 201 114 l31 30 26 -29 26 -29 -83 -167z
m-1290 160 c22 -19 49 -44 60 -55 17 -16 38 -21 103 -24 55 -2 86 -8 94 -17 6
-8 16 -14 21 -14 8 0 19 -8 51 -36 7 -6 23 -16 36 -23 25 -14 25 -14 -4 -131
-9 -36 -22 -91 -29 -123 -8 -33 -18 -62 -22 -67 -5 -4 -65 30 -134 75 l-125
83 -86 170 -86 171 26 25 c28 28 24 29 95 -34z m-69 -194 c36 -74 65 -138 65
-142 0 -5 -18 -20 -40 -33 -21 -13 -49 -34 -62 -45 -13 -12 -39 -33 -58 -46
-19 -13 -46 -35 -60 -47 -30 -28 -36 -15 -20 48 31 121 41 159 54 214 8 33 19
76 24 95 6 19 13 47 16 63 4 15 8 27 11 27 2 0 34 -60 70 -134z m1482 71 c14
-64 36 -153 58 -232 26 -100 42 -175 36 -175 -3 0 -26 18 -51 40 -25 22 -48
40 -52 40 -4 0 -13 6 -20 13 -7 6 -36 30 -63 51 -28 22 -54 43 -59 47 -5 4 22
69 59 143 38 75 71 134 74 131 3 -4 11 -30 18 -58z m-903 -19 c-3 -35 -9 -81
-14 -103 -5 -22 -12 -80 -15 -130 -4 -49 -10 -103 -15 -120 -5 -16 -11 -65
-15 -108 l-7 -78 -48 73 c-53 81 -52 67 -15 213 8 33 21 87 29 120 17 76 43
133 81 182 20 25 25 12 19 -49z m271 22 c32 -51 44 -80 61 -150 13 -54 32
-133 54 -219 10 -43 10 -45 -38 -117 l-49 -74 -12 102 c-7 57 -16 144 -21 193
-5 50 -14 113 -19 140 -15 75 -21 165 -10 165 5 0 20 -18 34 -40z m-520 -749
c-6 -5 -27 5 -130 64 -44 25 -105 57 -135 72 -30 15 -57 30 -60 33 -3 4 -23
15 -45 27 -87 45 -110 58 -113 66 -2 4 -10 7 -18 7 -23 0 -16 18 14 37 15 10
29 20 32 23 3 4 45 36 93 73 49 37 96 74 104 82 13 14 29 -13 138 -232 68
-136 122 -249 120 -252z m996 478 c13 -12 75 -59 137 -106 61 -47 112 -89 112
-92 0 -4 -26 -21 -57 -38 -113 -60 -128 -68 -133 -73 -3 -3 -30 -18 -60 -33
-63 -31 -163 -86 -232 -128 l-47 -28 33 67 c19 37 76 153 127 259 52 106 94
192 95 192 1 1 12 -8 25 -20z m-1048 -96 l97 -64 0 -152 0 -152 -22 45 c-12
25 -61 125 -110 223 -49 99 -83 175 -76 171 7 -4 57 -36 111 -71z m929 20
c-16 -32 -66 -132 -111 -223 l-82 -165 3 154 3 153 105 69 c58 37 106 68 108
69 1 0 -11 -26 -26 -57z m-737 -228 c36 -54 56 -112 72 -202 5 -31 3 -33 -23
-33 -16 0 -46 3 -66 6 l-38 7 1 156 c0 86 3 149 7 141 4 -8 25 -42 47 -75z
m502 -221 c-2 -2 -32 -7 -67 -11 l-63 -6 6 29 c21 110 38 155 78 217 l44 68 3
-147 c1 -81 1 -148 -1 -150z m-148 185 c20 -17 22 -23 13 -42 -6 -12 -14 -38
-17 -57 -3 -19 -11 -54 -17 -77 -12 -40 -13 -41 -60 -45 -26 -1 -71 -1 -98 0
-45 4 -50 6 -50 27 0 13 -4 26 -9 29 -4 3 -11 29 -15 58 -4 28 -12 60 -17 70
-8 15 -5 23 13 38 19 16 39 19 128 19 90 0 108 -2 129 -20z"/>
</svg>
